{"glyphs":{":":{"x_min":0,"x_max":343,"ha":343,"o":"m 73 390 q 73 432 101 460 q 129 488 171 488 q 213 488 242 460 q 270 432 270 390 q 270 348 241 320 q 212 291 171 291 q 130 291 102 320 q 73 349 73 390 z m 73 80 q 73 122 101 150 q 129 178 171 178 q 213 178 242 150 q 270 122 270 80 q 270 39 241 10 q 212 -19 171 -19 q 130 -19 102 10 q 73 39 73 80 z"},"$":{"x_min":0,"x_max":625,"ha":625,"o":"m 116 232 q 158 183 201 159 q 245 135 290 135 q 327 135 351 156 q 375 177 375 209 q 375 244 355 262 q 334 281 262 301 q 152 331 108 376 q 64 421 64 500 q 64 597 125 657 q 186 717 295 728 l 295 796 l 358 796 l 358 729 q 401 725 442 709 q 483 694 523 667 l 461 528 q 428 556 394 570 q 359 584 324 584 q 289 584 268 568 q 246 551 246 525 q 246 498 265 482 q 284 466 340 451 l 346 449 q 466 417 504 378 q 529 352 543 315 q 556 278 556 234 q 556 132 495 65 q 433 -1 330 -12 l 330 -131 l 267 -131 l 267 -14 q 198 -13 140 12 q 82 37 28 89 z"},"?":{"x_min":0,"x_max":605,"ha":605,"o":"m 195 80 q 195 122 224 150 q 252 179 294 179 q 336 179 364 151 q 392 122 392 80 q 392 38 364 10 q 335 -19 294 -19 q 253 -19 224 10 q 195 39 195 80 z m 384 242 l 216 242 l 216 444 l 268 444 q 323 444 352 466 q 381 489 381 531 q 381 564 359 588 q 336 611 304 611 q 270 611 251 593 q 231 574 229 539 l 62 539 l 62 541 q 62 636 130 693 q 198 750 312 750 q 416 750 479 690 q 542 630 542 532 q 542 451 498 399 q 455 348 384 346 z"},"<":{"x_min":0,"x_max":833,"ha":833,"o":"m 704 593 l 704 469 l 287 298 l 704 128 l 704 4 l 129 241 l 129 355 z"},"'":{"x_min":0,"x_max":181,"ha":181,"o":"m 37 702 l 144 702 l 144 428 l 37 428 z"},"=":{"x_min":0,"x_max":833,"ha":833,"o":"m 124 245 l 709 245 l 709 133 l 124 133 z m 124 464 l 709 464 l 709 351 l 124 351 z"},"a":{"x_min":0,"x_max":660,"ha":660,"o":"m 440 247 q 440 305 409 338 q 378 372 325 372 q 272 372 241 339 q 211 305 211 247 q 211 189 242 156 q 272 123 325 123 q 378 123 409 156 q 440 189 440 247 z m 593 493 l 593 0 l 433 0 l 433 80 q 399 29 356 5 q 313 -19 256 -19 q 157 -19 98 53 q 39 125 39 246 q 39 367 101 438 q 163 509 267 509 q 323 509 363 485 q 403 461 432 412 l 432 493 z"},"L":{"x_min":0,"x_max":532,"ha":532,"o":"m 76 0 l 76 715 l 271 715 l 271 167 l 513 167 l 513 0 z"},"3":{"x_min":0,"x_max":625,"ha":625,"o":"m 41 237 l 222 237 l 222 225 q 222 178 244 154 q 266 130 309 130 q 354 130 378 153 q 402 176 402 220 q 402 270 376 293 q 351 316 296 316 q 287 316 282 316 q 278 315 274 315 l 274 430 l 284 430 q 333 430 360 452 q 386 473 386 514 q 386 547 364 567 q 342 588 307 588 q 270 588 250 568 q 229 548 228 511 l 55 511 q 57 611 125 667 q 193 722 316 722 q 425 722 488 673 q 551 623 551 538 q 551 484 522 446 q 493 408 438 391 q 505 379 542 333 q 579 287 579 215 q 579 111 505 46 q 431 -19 312 -19 q 187 -19 114 48 q 41 115 41 230 z"},";":{"x_min":0,"x_max":343,"ha":343,"o":"m 119 390 q 119 432 148 460 q 176 488 218 488 q 260 488 288 460 q 316 432 316 390 q 316 348 288 320 q 259 291 218 291 q 177 291 148 320 q 119 349 119 390 z m 130 162 l 312 162 l 161 -144 l 26 -144 z"},"J":{"x_min":0,"x_max":479,"ha":479,"o":"m 217 715 l 411 715 l 411 251 q 411 175 401 135 q 392 94 369 63 q 339 22 296 2 q 252 -19 198 -19 q 131 -19 78 10 q 25 39 -12 95 l 107 203 q 111 171 127 154 q 144 137 168 137 q 196 137 206 168 q 217 199 217 322 z"},"V":{"x_min":0,"x_max":711,"ha":711,"o":"m 281 0 l -19 715 l 188 715 l 331 315 q 333 309 339 284 q 345 260 355 219 q 363 252 370 278 q 376 305 380 315 l 522 715 l 729 715 l 429 0 z"},"\"":{"x_min":0,"x_max":348,"ha":348,"o":"m 203 702 l 312 702 l 312 428 l 203 428 z m 37 702 l 144 702 l 144 428 l 37 428 z"},"7":{"x_min":0,"x_max":625,"ha":625,"o":"m 95 0 l 364 548 l 62 548 l 62 708 l 608 708 l 608 674 l 297 0 z"},"S":{"x_min":0,"x_max":581,"ha":581,"o":"m 108 231 q 151 182 194 157 q 236 133 278 133 q 317 133 342 154 q 367 175 367 207 q 367 243 345 262 q 324 281 247 302 q 142 330 99 375 q 55 421 55 500 q 55 603 124 667 q 192 732 302 732 q 361 732 414 716 q 467 700 514 668 l 453 528 q 420 556 385 571 q 350 585 316 585 q 281 585 259 568 q 237 551 237 525 q 237 498 256 482 q 275 466 331 451 l 339 449 q 458 417 496 378 q 521 352 535 315 q 548 278 548 233 q 548 119 473 50 q 398 -19 274 -19 q 199 -19 138 6 q 77 32 20 86 z"},"}":{"x_min":0,"x_max":500,"ha":500,"o":"m 65 721 q 72 721 85 722 q 98 722 104 722 q 157 722 192 716 q 227 710 251 698 q 279 683 291 655 q 303 626 303 560 l 303 436 q 303 371 327 344 q 351 317 409 317 q 412 317 418 317 q 424 318 427 318 l 427 200 q 424 200 418 201 q 412 201 409 201 q 351 201 327 174 q 303 147 303 83 l 303 -42 q 303 -109 291 -137 q 279 -165 251 -180 q 229 -192 196 -198 q 162 -203 109 -203 q 102 -203 87 -203 q 73 -202 65 -202 l 65 -84 q 69 -84 76 -84 q 83 -85 86 -85 q 133 -85 150 -68 q 166 -51 166 3 l 166 121 q 166 189 188 218 q 211 247 269 259 q 210 271 188 300 q 166 329 166 398 l 166 515 q 166 569 150 587 q 133 604 88 604 q 84 604 77 604 q 69 603 65 603 z"},"Z":{"x_min":0,"x_max":677,"ha":677,"o":"m 634 0 l 2 0 l 363 560 l 73 560 l 73 715 l 675 715 l 315 156 l 634 156 z"},"x":{"x_min":0,"x_max":530,"ha":530,"o":"m 237 409 q 248 388 253 375 q 258 362 261 350 q 264 362 269 375 q 273 387 285 409 l 332 493 l 529 493 l 360 264 l 557 0 l 361 0 l 287 124 q 278 139 272 153 q 267 168 263 183 q 259 167 253 153 q 248 139 239 124 l 166 0 l -27 0 l 167 264 l 1 493 l 191 493 z"},")":{"x_min":0,"x_max":363,"ha":363,"o":"m 30 -155 q 100 -67 134 33 q 167 133 167 253 q 167 378 133 478 q 98 577 25 664 l 137 736 q 226 628 269 510 q 312 391 312 253 q 312 115 269 -3 q 226 -121 137 -229 z"},"&":{"x_min":0,"x_max":806,"ha":806,"o":"m 569 0 l 506 73 q 455 25 398 3 q 341 -19 272 -19 q 177 -19 116 37 q 56 93 56 180 q 56 248 96 299 q 135 351 222 396 q 188 435 172 471 q 156 507 156 543 q 156 615 212 663 q 269 711 354 711 q 452 711 508 664 q 564 616 564 535 q 564 483 533 438 q 503 394 442 355 l 526 267 q 551 288 576 312 q 601 336 626 366 l 728 261 q 703 230 678 205 q 654 180 630 160 l 785 0 z m 408 170 l 293 296 q 259 266 244 241 q 228 217 228 193 q 228 162 250 140 q 271 119 304 119 q 328 119 354 132 q 379 144 408 170 z m 358 439 l 381 458 q 405 478 418 499 q 431 519 431 538 q 431 564 414 580 q 397 596 370 596 q 339 596 322 579 q 304 562 304 533 q 304 521 312 504 q 319 486 330 473 z"},"_":{"x_min":0,"x_max":500,"ha":500,"o":"m 0 -119 l 500 -119 l 500 -236 l 0 -236 z"},"v":{"x_min":0,"x_max":564,"ha":564,"o":"m 213 0 l -9 493 l 177 493 l 261 275 q 262 272 264 267 q 280 224 284 198 q 288 222 303 262 q 307 271 308 275 l 392 493 l 573 493 l 349 0 z"},"O":{"x_min":0,"x_max":856,"ha":856,"o":"m 810 356 q 810 279 782 211 q 753 144 699 91 q 645 38 574 10 q 504 -19 428 -19 q 352 -19 281 10 q 211 38 158 91 q 103 144 74 212 q 46 280 46 356 q 46 433 74 500 q 103 568 158 621 q 211 674 281 702 q 352 731 428 731 q 504 731 575 702 q 646 674 699 621 q 753 568 781 500 q 810 433 810 356 z m 428 146 q 509 146 562 206 q 615 265 615 356 q 615 446 562 506 q 508 566 428 566 q 347 566 294 506 q 241 446 241 356 q 241 264 293 205 q 346 146 428 146 z"},"(":{"x_min":0,"x_max":363,"ha":363,"o":"m 334 -155 l 227 -229 q 137 -120 94 -2 q 51 116 51 253 q 51 391 94 509 q 137 627 227 736 l 338 664 q 266 578 231 478 q 197 379 197 253 q 197 133 230 33 q 264 -67 334 -155 z"},"C":{"x_min":0,"x_max":628,"ha":628,"o":"m 594 687 l 594 474 q 554 519 514 539 q 475 560 429 560 q 345 560 293 503 q 241 445 241 353 q 241 267 294 210 q 347 154 429 154 q 475 154 514 175 q 554 195 594 240 l 594 27 q 548 4 502 -7 q 456 -18 409 -18 q 351 -18 301 -4 q 251 10 210 38 q 130 92 88 173 q 46 255 46 357 q 46 439 73 506 q 99 573 153 628 q 204 680 267 706 q 331 732 409 732 q 456 732 502 721 q 548 709 594 687 z"},"W":{"x_min":0,"x_max":970,"ha":970,"o":"m 563 715 l 653 375 q 659 352 665 327 q 670 302 676 270 q 683 308 688 333 q 693 357 698 375 l 782 715 l 979 715 l 777 0 l 596 0 l 508 305 q 503 321 492 368 q 487 389 484 401 q 481 391 477 372 q 466 325 460 305 l 373 0 l 192 0 l -10 715 l 187 715 l 269 373 q 275 347 281 320 q 286 294 291 266 q 295 287 301 309 q 306 332 316 373 l 406 715 z"},"A":{"x_min":0,"x_max":722,"ha":722,"o":"m 265 267 l 459 267 l 386 503 q 383 514 377 538 q 371 562 362 599 q 355 573 349 549 q 343 525 337 503 z m -8 0 l 239 715 l 483 715 l 730 0 l 536 0 l 500 128 l 223 128 l 186 0 z"},"f":{"x_min":0,"x_max":351,"ha":351,"o":"m 81 0 l 81 370 l 7 370 l 7 493 l 81 493 l 81 594 q 81 680 128 724 q 175 767 268 767 q 281 767 300 765 q 318 762 339 758 l 339 625 q 327 629 317 632 q 307 634 299 634 q 274 634 263 619 q 252 604 252 572 l 252 493 l 339 493 l 339 370 l 252 370 l 252 0 z"},"Q":{"x_min":0,"x_max":856,"ha":856,"o":"m 546 285 l 583 236 q 599 260 607 289 q 615 318 615 351 q 615 445 562 506 q 509 567 428 567 q 349 567 295 506 q 241 446 241 356 q 241 264 294 204 q 348 144 429 144 q 440 144 452 147 q 464 149 478 155 l 377 285 z m 825 -84 l 659 -84 l 583 16 q 552 0 514 -9 q 476 -17 431 -17 q 370 -17 314 -1 q 258 15 210 47 q 133 98 90 180 q 46 263 46 357 q 46 433 75 501 q 104 569 158 622 q 212 675 281 703 q 351 731 428 731 q 505 731 575 703 q 644 675 698 622 q 752 569 781 501 q 810 433 810 357 q 810 277 781 208 q 751 140 695 89 z"},"w":{"x_min":0,"x_max":803,"ha":803,"o":"m 454 493 l 527 275 l 528 271 q 544 226 549 198 q 552 214 556 231 q 561 248 570 275 l 644 493 l 824 493 l 617 0 l 494 0 l 421 223 q 415 242 410 261 q 406 281 402 300 q 396 271 383 226 l 382 223 l 309 0 l 186 0 l -20 493 l 159 493 l 233 275 q 241 251 246 233 q 251 215 254 198 q 258 223 273 266 q 275 272 276 275 l 349 493 z"},"-":{"x_min":0,"x_max":456,"ha":456,"o":"m 62 166 l 62 325 l 394 325 l 394 166 z"},"E":{"x_min":0,"x_max":567,"ha":567,"o":"m 76 0 l 76 715 l 514 715 l 514 558 l 266 558 l 266 434 l 500 434 l 500 281 l 266 281 l 266 160 l 514 160 l 514 0 z"},"s":{"x_min":0,"x_max":484,"ha":484,"o":"m 18 41 l 54 174 q 92 141 138 123 q 184 105 230 105 q 263 105 280 115 q 297 126 297 146 q 297 179 228 195 q 206 200 192 204 q 114 226 78 260 q 43 295 43 351 q 43 423 97 466 q 151 509 243 509 q 291 509 340 498 q 389 487 440 464 l 404 344 q 369 368 333 380 q 298 392 262 392 q 232 392 217 383 q 202 374 202 356 q 202 330 271 312 q 286 307 294 305 q 384 279 420 244 q 455 209 455 150 q 455 74 397 28 q 339 -19 243 -19 q 178 -19 123 -4 q 67 11 18 41 z"},">":{"x_min":0,"x_max":833,"ha":833,"o":"m 129 593 l 704 355 l 704 241 l 129 4 l 129 128 l 546 298 l 129 469 z"},"l":{"x_min":0,"x_max":312,"ha":312,"o":"m 69 0 l 69 757 l 243 757 l 243 0 z"},"8":{"x_min":0,"x_max":625,"ha":625,"o":"m 312 440 q 351 440 374 462 q 397 484 397 522 q 397 560 375 582 q 352 603 312 603 q 273 603 250 581 q 228 560 228 522 q 228 484 251 462 q 273 440 312 440 z m 312 124 q 358 124 385 149 q 411 175 411 219 q 411 263 385 288 q 358 313 312 313 q 267 313 240 288 q 214 263 214 219 q 214 175 240 150 q 267 124 312 124 z m 438 382 q 508 369 546 321 q 585 272 585 197 q 585 95 513 38 q 441 -19 312 -19 q 184 -19 112 38 q 40 95 40 197 q 40 272 79 321 q 117 369 187 382 q 130 396 100 434 q 69 472 69 529 q 69 620 133 671 q 197 722 312 722 q 427 722 492 671 q 556 620 556 529 q 556 472 525 434 q 495 396 438 382 z"},"\\":{"x_min":0,"x_max":458,"ha":458,"o":"m 350 -93 l 0 731 l 109 731 l 458 -93 z"},"e":{"x_min":0,"x_max":611,"ha":611,"o":"m 404 310 q 399 352 372 377 q 345 403 305 403 q 263 403 238 380 q 212 356 204 310 z m 575 212 l 200 212 q 201 155 229 124 q 258 93 311 93 q 351 93 378 108 q 405 123 419 152 l 550 99 q 526 42 467 12 q 407 -19 321 -19 q 192 -19 114 52 q 36 124 36 241 q 36 356 114 433 q 192 509 311 509 q 434 509 504 432 q 575 354 575 220 z"},"b":{"x_min":0,"x_max":660,"ha":660,"o":"m 219 246 q 219 188 249 155 q 279 122 332 122 q 385 122 416 155 q 446 188 446 246 q 446 304 415 337 q 385 370 332 370 q 279 370 249 337 q 219 304 219 246 z m 65 757 l 231 757 l 231 499 q 231 468 230 447 q 229 426 226 411 q 256 464 296 486 q 335 509 398 509 q 497 509 558 436 q 619 364 619 246 q 619 125 557 53 q 496 -19 392 -19 q 341 -19 300 6 q 258 30 225 80 l 225 0 l 65 0 z"},"%":{"x_min":0,"x_max":904,"ha":904,"o":"m 208 403 q 241 403 255 431 q 270 460 270 525 q 270 590 255 618 q 241 647 208 647 q 175 647 161 618 q 146 590 146 525 q 146 460 161 431 q 175 403 208 403 z m 392 525 q 392 435 342 382 q 292 328 208 328 q 124 328 74 381 q 24 435 24 525 q 24 615 74 669 q 124 722 208 722 q 292 722 342 669 q 392 615 392 525 z m 705 56 q 738 56 752 85 q 767 114 767 179 q 767 244 752 272 q 738 301 705 301 q 672 301 658 272 q 643 244 643 179 q 643 114 658 85 q 672 56 705 56 z m 888 179 q 888 88 838 35 q 789 -19 705 -19 q 621 -19 571 35 q 521 88 521 179 q 521 270 571 323 q 621 376 705 376 q 789 376 839 323 q 888 270 888 179 z m 192 -19 l 621 722 l 713 722 l 281 -19 z"},"m":{"x_min":0,"x_max":948,"ha":948,"o":"m 717 0 l 717 269 q 717 333 701 357 q 685 382 646 382 q 597 382 578 348 q 559 314 559 209 l 559 0 l 391 0 l 391 269 q 391 334 375 358 q 360 382 321 382 q 272 382 252 348 q 233 315 233 209 l 233 0 l 64 0 l 64 493 l 235 493 l 235 407 q 266 459 306 484 q 346 509 401 509 q 461 509 499 486 q 538 462 554 416 q 583 463 625 486 q 666 509 722 509 q 767 509 800 494 q 833 479 856 449 q 874 426 882 395 q 889 363 889 293 l 889 282 l 889 0 z"},"#":{"x_min":0,"x_max":769,"ha":769,"o":"m 345 411 l 305 298 l 425 298 l 465 411 z m 334 716 l 456 716 l 388 524 l 503 524 l 572 716 l 694 716 l 626 524 l 758 524 l 716 411 l 585 411 l 546 299 l 681 299 l 640 186 l 506 186 l 437 -6 l 315 -6 l 383 186 l 268 186 l 199 -6 l 77 -6 l 145 186 l 11 186 l 53 299 l 185 299 l 225 411 l 87 411 l 129 524 l 265 524 z"},",":{"x_min":0,"x_max":312,"ha":312,"o":"m 117 162 l 299 162 l 148 -144 l 13 -144 z"},"n":{"x_min":0,"x_max":653,"ha":653,"o":"m 64 0 l 64 493 l 223 493 l 223 393 q 258 453 303 481 q 349 509 412 509 q 460 509 497 493 q 535 478 558 449 q 578 424 586 389 q 594 353 594 282 l 594 0 l 420 0 l 420 264 q 420 323 401 350 q 381 377 339 377 q 285 377 260 337 q 235 297 235 207 l 235 0 z"},"h":{"x_min":0,"x_max":653,"ha":653,"o":"m 64 0 l 64 757 l 235 757 l 235 491 q 235 465 233 442 q 232 420 229 402 q 262 457 306 483 q 351 509 412 509 q 460 509 497 493 q 535 478 558 449 q 578 424 586 389 q 594 353 594 282 l 594 0 l 420 0 l 420 264 q 420 323 401 350 q 381 377 339 377 q 285 377 260 337 q 235 297 235 207 l 235 0 z"},"z":{"x_min":0,"x_max":542,"ha":542,"o":"m 500 0 l 0 0 l 253 366 l 31 366 l 31 493 l 522 493 l 260 134 l 500 134 z"},"B":{"x_min":0,"x_max":678,"ha":678,"o":"m 257 429 l 296 429 q 368 429 395 445 q 422 461 422 500 q 422 541 397 557 q 372 573 299 573 l 257 573 z m 76 0 l 76 715 l 272 715 q 393 715 441 707 q 489 699 524 680 q 563 658 584 621 q 605 584 605 536 q 605 475 574 439 q 543 403 475 385 q 551 379 594 331 q 637 284 637 204 q 637 147 613 104 q 589 60 544 36 q 507 17 454 8 q 400 0 278 0 z m 257 146 l 325 146 q 395 146 423 163 q 452 181 452 221 q 452 266 426 284 q 399 302 328 302 l 257 302 z"},"K":{"x_min":0,"x_max":725,"ha":725,"o":"m 76 0 l 76 715 l 269 715 l 269 390 l 495 715 l 722 715 l 458 366 l 745 0 l 502 0 l 269 321 l 269 0 z"},"R":{"x_min":0,"x_max":641,"ha":641,"o":"m 76 0 l 76 715 l 280 715 q 399 715 447 704 q 494 693 528 667 q 566 638 587 592 q 608 547 608 492 q 608 409 567 357 q 526 305 448 288 l 643 0 l 423 0 l 259 280 l 259 0 z m 259 377 l 295 377 q 358 377 387 398 q 416 420 416 466 q 416 520 389 542 q 362 565 298 565 l 259 565 z"},"T":{"x_min":0,"x_max":553,"ha":553,"o":"m 179 0 l 179 546 l 19 546 l 19 715 l 534 715 l 534 546 l 374 546 l 374 0 z"},"P":{"x_min":0,"x_max":634,"ha":634,"o":"m 259 0 l 76 0 l 76 715 l 280 715 q 399 715 448 703 q 496 691 530 663 q 569 630 590 581 q 611 532 611 472 q 611 408 590 360 q 570 311 530 280 q 500 256 458 246 q 417 236 327 236 l 294 236 l 259 236 z m 259 393 l 296 393 q 366 393 394 412 q 422 432 422 478 q 422 523 395 542 q 367 561 298 561 l 259 561 z"},"|":{"x_min":0,"x_max":500,"ha":500,"o":"m 192 764 l 309 764 l 309 -236 l 192 -236 z"},"t":{"x_min":0,"x_max":353,"ha":353,"o":"m 91 0 l 91 370 l 17 370 l 17 493 l 91 493 l 91 640 l 262 640 l 262 493 l 336 493 l 336 370 l 262 370 l 262 0 z"},"M":{"x_min":0,"x_max":925,"ha":925,"o":"m 896 0 l 714 0 l 672 309 q 667 342 664 382 q 660 422 657 469 q 650 424 630 356 q 626 342 624 335 l 527 0 l 397 0 l 300 335 q 298 342 294 356 q 273 424 267 469 q 264 428 260 388 q 256 349 251 309 l 209 0 l 28 0 l 138 715 l 331 715 l 439 346 q 440 342 443 333 q 458 284 462 249 q 464 268 469 291 q 475 314 484 347 l 593 715 l 786 715 z"},"g":{"x_min":0,"x_max":660,"ha":660,"o":"m 440 248 q 440 305 409 338 q 379 370 325 370 q 271 370 240 338 q 209 305 209 248 q 209 191 240 159 q 271 126 325 126 q 378 126 409 159 q 440 191 440 248 z m 593 493 l 593 1 q 593 -111 525 -164 q 457 -218 314 -218 q 199 -218 133 -175 q 68 -132 64 -54 l 244 -54 q 248 -77 270 -90 q 292 -103 327 -103 q 383 -103 405 -76 q 426 -49 426 38 l 426 83 q 398 37 356 14 q 313 -9 255 -9 q 157 -9 98 62 q 39 132 39 250 q 39 369 101 439 q 163 509 267 509 q 322 509 363 486 q 403 463 432 414 l 432 493 z"},"j":{"x_min":0,"x_max":312,"ha":312,"o":"m 60 647 q 60 687 88 714 q 116 742 156 742 q 197 742 224 715 q 252 688 252 647 q 252 606 224 578 q 196 550 156 550 q 117 550 88 579 q 60 607 60 647 z m 69 -218 l 69 493 l 243 493 l 243 -218 z"},"i":{"x_min":0,"x_max":312,"ha":312,"o":"m 60 647 q 60 687 88 714 q 116 742 156 742 q 197 742 224 715 q 252 688 252 647 q 252 606 224 578 q 196 550 156 550 q 117 550 88 579 q 60 607 60 647 z m 69 0 l 69 493 l 243 493 l 243 0 z"},"y":{"x_min":0,"x_max":532,"ha":532,"o":"m 37 -218 l 176 75 l -23 493 l 170 493 l 239 315 q 248 292 253 273 q 259 254 262 237 q 265 255 271 274 q 276 292 285 315 l 355 493 l 541 493 l 231 -218 z"},"@":{"x_min":0,"x_max":1000,"ha":1000,"o":"m 567 128 q 540 88 505 69 q 471 51 423 51 q 343 51 302 94 q 261 136 261 219 q 261 337 330 417 q 399 496 501 496 q 539 496 566 481 q 594 466 613 436 l 638 481 l 739 481 l 664 183 q 664 182 664 180 q 662 171 662 167 q 662 152 670 145 q 678 138 693 138 q 760 138 810 208 q 861 278 861 372 q 861 489 773 562 q 686 636 545 636 q 473 636 411 618 q 350 601 299 565 q 223 511 182 431 q 141 351 141 257 q 141 109 240 22 q 339 -66 506 -66 q 586 -66 660 -43 q 734 -20 797 25 l 844 -41 q 768 -98 684 -126 q 599 -155 506 -155 q 412 -155 333 -131 q 253 -107 192 -60 q 115 0 78 77 q 40 155 40 254 q 40 336 66 410 q 92 484 142 546 q 214 635 318 682 q 421 728 546 728 q 629 728 702 706 q 775 683 829 641 q 896 589 928 522 q 961 456 961 373 q 961 292 929 223 q 897 155 836 106 q 802 79 761 64 q 719 50 675 50 q 623 50 596 69 q 569 89 567 128 z m 585 340 q 581 377 561 396 q 541 416 507 416 q 457 416 418 357 q 380 297 380 217 q 380 176 397 154 q 414 132 445 132 q 486 132 517 161 q 548 189 560 238 z"},".":{"x_min":0,"x_max":312,"ha":312,"o":"m 58 80 q 58 122 86 150 q 114 178 156 178 q 198 178 227 150 q 255 122 255 80 q 255 39 226 10 q 198 -19 156 -19 q 115 -19 86 10 q 58 39 58 80 z"},"p":{"x_min":0,"x_max":660,"ha":660,"o":"m 219 245 q 219 188 249 154 q 279 121 332 121 q 385 121 415 154 q 446 188 446 245 q 446 303 416 336 q 385 369 332 369 q 279 369 249 336 q 219 303 219 245 z m 65 -218 l 65 493 l 225 493 l 225 410 q 258 460 300 484 q 341 509 392 509 q 496 509 558 438 q 619 367 619 245 q 619 127 558 54 q 497 -19 398 -19 q 335 -19 296 4 q 257 27 226 80 q 229 65 230 44 q 231 23 231 -8 l 231 -218 z"},"X":{"x_min":0,"x_max":706,"ha":706,"o":"m 329 549 l 330 547 q 347 515 353 490 q 358 513 375 543 q 377 547 378 549 l 464 715 l 695 715 l 456 371 l 720 0 l 499 0 l 378 212 q 370 226 363 241 q 357 256 353 271 q 349 254 343 239 q 337 225 329 212 l 207 0 l -14 0 l 251 375 l 11 715 l 243 715 z"},"*":{"x_min":0,"x_max":521,"ha":521,"o":"m 293 590 l 393 668 l 442 581 l 325 534 l 443 486 l 393 400 l 293 478 l 310 352 l 211 352 l 227 478 l 128 400 l 78 486 l 197 534 l 78 581 l 128 667 l 228 590 l 210 715 l 310 715 z"},"Y":{"x_min":0,"x_max":597,"ha":597,"o":"m 203 0 l 203 326 l -47 715 l 177 715 l 273 531 q 274 529 276 525 q 291 497 297 470 q 302 494 318 523 q 321 529 322 531 l 417 715 l 641 715 l 391 326 l 391 0 z"},"c":{"x_min":0,"x_max":461,"ha":461,"o":"m 418 331 q 393 354 369 364 q 346 374 320 374 q 268 374 238 340 q 207 306 207 247 q 207 190 239 157 q 271 123 324 123 q 351 123 374 134 q 397 144 418 166 l 418 15 q 387 -2 355 -11 q 324 -19 291 -19 q 177 -19 107 54 q 36 127 36 246 q 36 362 108 435 q 180 509 293 509 q 331 509 361 501 q 391 494 418 478 z"},"!":{"x_min":0,"x_max":343,"ha":343,"o":"m 81 238 l 81 748 l 262 748 l 262 238 z m 73 80 q 73 122 101 150 q 129 179 171 179 q 213 179 241 151 q 270 122 270 80 q 270 39 241 10 q 212 -19 171 -19 q 130 -19 102 10 q 73 39 73 80 z"},"/":{"x_min":0,"x_max":458,"ha":458,"o":"m 0 -93 l 350 731 l 458 731 l 109 -93 z"},"[":{"x_min":0,"x_max":363,"ha":363,"o":"m 88 731 l 336 731 l 336 613 l 229 613 l 229 -107 l 336 -107 l 336 -225 l 88 -225 z"},"6":{"x_min":0,"x_max":625,"ha":625,"o":"m 313 342 q 263 342 234 312 q 205 283 205 232 q 205 182 234 152 q 263 123 313 123 q 363 123 392 152 q 421 182 421 232 q 421 283 392 312 q 363 342 313 342 z m 304 456 q 321 461 340 464 q 358 467 379 467 q 470 467 529 403 q 589 339 589 241 q 589 123 514 52 q 440 -19 315 -19 q 190 -19 117 51 q 44 122 44 240 q 44 301 69 366 q 93 430 172 553 l 272 708 l 471 708 z"},"r":{"x_min":0,"x_max":447,"ha":447,"o":"m 65 0 l 65 493 l 229 493 l 229 377 q 254 440 298 472 q 342 504 405 504 q 415 504 426 503 q 436 502 447 501 l 430 343 q 415 348 399 351 q 384 353 370 353 q 307 353 272 314 q 238 275 238 204 l 238 0 z"},"2":{"x_min":0,"x_max":625,"ha":625,"o":"m 565 0 l 19 0 l 340 380 q 369 415 383 443 q 397 471 397 495 q 397 533 373 556 q 350 580 311 580 q 265 580 240 551 q 216 521 216 466 l 216 457 l 44 457 l 44 462 q 44 583 115 653 q 186 723 309 723 q 429 723 500 661 q 572 599 572 496 q 572 446 549 398 q 527 351 475 294 l 346 152 l 565 152 z"},"{":{"x_min":0,"x_max":500,"ha":500,"o":"m 436 721 l 436 603 q 433 603 426 604 q 419 604 416 604 q 368 604 352 587 q 335 569 335 515 l 335 398 q 335 330 312 300 q 290 271 232 259 q 291 247 313 219 q 335 190 335 121 l 335 3 q 335 -51 351 -68 q 368 -85 415 -85 q 418 -85 426 -84 q 433 -84 436 -84 l 436 -202 q 429 -202 416 -203 q 402 -203 396 -203 q 343 -203 308 -197 q 273 -191 250 -179 q 221 -164 210 -136 q 198 -108 198 -42 l 198 83 q 198 148 174 175 q 150 201 92 201 q 90 201 83 201 q 77 200 74 200 l 74 318 q 77 318 83 317 q 89 317 92 317 q 149 317 174 344 q 198 371 198 436 l 198 560 q 198 626 210 655 q 222 683 250 698 q 273 710 309 716 q 344 722 397 722 q 403 722 416 722 q 429 721 436 721 z"},"9":{"x_min":0,"x_max":625,"ha":625,"o":"m 318 362 q 368 362 397 391 q 426 420 426 471 q 426 522 397 552 q 368 581 318 581 q 268 581 239 552 q 210 522 210 471 q 210 420 239 391 q 268 362 318 362 z m 327 248 q 310 243 291 240 q 272 237 252 237 q 161 237 102 301 q 42 364 42 462 q 42 581 116 652 q 190 723 315 723 q 439 723 513 653 q 586 583 586 464 q 586 400 558 330 q 529 259 458 151 l 359 0 l 160 0 z"}," ":{"x_min":0,"x_max":313,"ha":313,"o":""},"I":{"x_min":0,"x_max":359,"ha":359,"o":"m 81 0 l 81 715 l 278 715 l 278 0 z"},"H":{"x_min":0,"x_max":802,"ha":802,"o":"m 76 0 l 76 715 l 271 715 l 271 437 l 531 437 l 531 715 l 726 715 l 726 0 l 531 0 l 531 291 l 271 291 l 271 0 z"},"4":{"x_min":0,"x_max":625,"ha":625,"o":"m 352 301 l 352 509 q 352 538 353 557 q 354 576 357 590 q 348 569 336 548 q 325 527 308 501 l 177 301 z m 352 0 l 352 160 l 27 160 l 27 301 l 293 711 l 515 711 l 515 301 l 594 301 l 594 160 l 515 160 l 515 0 z"},"~":{"x_min":0,"x_max":833,"ha":833,"o":"m 747 400 l 747 276 q 698 242 652 226 q 607 209 563 209 q 541 209 520 213 q 498 216 479 223 q 473 225 460 229 q 336 273 274 273 q 233 273 188 255 q 144 236 87 196 l 87 320 q 142 355 188 373 q 235 390 276 390 q 307 390 338 384 q 369 378 420 362 q 428 359 445 354 q 523 326 566 326 q 607 326 651 344 q 694 361 747 400 z"},"D":{"x_min":0,"x_max":766,"ha":766,"o":"m 76 0 l 76 715 l 225 715 q 392 715 461 699 q 530 684 582 647 q 650 600 685 526 q 720 452 720 357 q 720 262 685 188 q 650 114 582 67 q 530 31 464 15 q 397 0 258 0 l 225 0 z m 269 160 l 302 160 q 417 160 469 207 q 522 254 522 357 q 522 459 469 507 q 417 555 302 555 l 269 555 z"},"^":{"x_min":0,"x_max":1000,"ha":1000,"o":"m 429 714 l 570 714 l 797 439 l 668 439 l 500 606 l 331 439 l 202 439 z"},"0":{"x_min":0,"x_max":625,"ha":625,"o":"m 583 345 q 583 175 511 78 q 439 -19 313 -19 q 187 -19 115 80 q 42 179 42 352 q 42 525 115 624 q 187 722 313 722 q 441 722 512 623 q 583 524 583 345 z m 222 352 q 222 235 244 181 q 266 127 313 127 q 359 127 381 181 q 403 235 403 352 q 403 468 381 522 q 359 577 313 577 q 265 577 244 524 q 222 470 222 352 z"},"F":{"x_min":0,"x_max":544,"ha":544,"o":"m 76 0 l 76 715 l 514 715 l 514 558 l 266 558 l 266 434 l 500 434 l 500 281 l 266 281 l 266 0 z"},"`":{"x_min":0,"x_max":500,"ha":500,"o":"m 109 731 l 246 731 l 335 560 l 260 560 z"},"k":{"x_min":0,"x_max":641,"ha":641,"o":"m 65 0 l 65 757 l 236 757 l 236 278 l 415 493 l 631 493 l 409 256 l 651 0 l 422 0 l 236 219 l 236 0 z"},"u":{"x_min":0,"x_max":631,"ha":631,"o":"m 570 493 l 570 241 q 570 158 556 117 q 543 77 511 46 q 479 13 430 -3 q 381 -19 315 -19 q 250 -19 201 -3 q 152 13 118 46 q 86 76 73 117 q 60 158 60 241 l 60 493 l 226 493 l 226 230 q 226 168 247 140 q 267 113 313 113 q 359 113 380 140 q 400 167 400 230 l 400 493 z"},"]":{"x_min":0,"x_max":363,"ha":363,"o":"m 275 731 l 275 -225 l 28 -225 l 28 -107 l 134 -107 l 134 613 l 28 613 l 28 731 z"},"U":{"x_min":0,"x_max":780,"ha":780,"o":"m 72 715 l 266 715 l 266 367 q 266 291 270 257 q 274 224 283 201 q 294 174 322 159 q 350 145 390 145 q 430 145 458 159 q 485 174 497 201 q 506 224 510 257 q 514 291 514 367 l 514 416 l 514 715 l 708 715 l 708 337 q 708 219 694 163 q 680 107 646 68 q 609 24 545 3 q 481 -19 390 -19 q 298 -19 235 3 q 171 24 134 68 q 101 107 86 163 q 72 219 72 337 l 72 411 z"},"o":{"x_min":0,"x_max":623,"ha":623,"o":"m 414 245 q 414 300 386 332 q 358 364 311 364 q 263 364 236 332 q 208 300 208 245 q 208 190 235 158 q 263 127 311 127 q 359 127 386 158 q 414 190 414 245 z m 587 245 q 587 192 566 144 q 545 96 506 58 q 466 20 416 0 q 367 -19 311 -19 q 254 -19 205 0 q 155 20 116 58 q 77 95 57 143 q 36 191 36 245 q 36 299 56 347 q 77 395 116 433 q 155 471 204 490 q 254 509 311 509 q 368 509 417 490 q 467 471 506 433 q 546 395 566 347 q 587 299 587 245 z"},"N":{"x_min":0,"x_max":852,"ha":852,"o":"m 76 0 l 76 715 l 264 715 l 534 347 q 542 336 560 302 q 578 268 599 221 q 593 266 591 300 q 588 335 588 362 l 588 715 l 775 715 l 775 0 l 588 0 l 318 369 q 310 380 292 414 q 274 448 253 494 q 259 449 261 415 q 264 380 264 353 l 264 0 z"},"+":{"x_min":0,"x_max":833,"ha":833,"o":"m 359 596 l 475 596 l 475 355 l 709 355 l 709 242 l 475 242 l 475 0 l 359 0 l 359 242 l 124 242 l 124 355 l 359 355 z"},"G":{"x_min":0,"x_max":843,"ha":843,"o":"m 416 263 l 416 413 l 799 413 q 799 406 800 397 q 800 388 800 371 q 800 187 702 85 q 605 -17 428 -17 q 341 -17 274 9 q 206 35 153 89 q 102 140 74 210 q 46 280 46 357 q 46 437 73 504 q 101 571 155 625 q 208 677 278 704 q 348 731 428 731 q 533 731 614 689 q 695 648 750 566 l 581 485 q 551 526 513 547 q 475 567 428 567 q 341 567 291 509 q 240 450 240 349 q 240 247 291 188 q 341 130 428 130 q 502 130 552 166 q 602 203 610 263 z"},"q":{"x_min":0,"x_max":660,"ha":660,"o":"m 441 245 q 441 302 410 336 q 380 369 327 369 q 274 369 244 336 q 214 303 214 245 q 214 188 244 154 q 274 121 327 121 q 380 121 410 154 q 441 188 441 245 z m 595 -218 l 428 -218 l 428 -8 q 428 18 430 40 q 431 62 434 80 q 403 27 364 4 q 324 -19 262 -19 q 164 -19 102 54 q 41 127 41 245 q 41 367 103 438 q 164 509 268 509 q 319 509 360 484 q 402 460 435 410 l 435 493 l 595 493 z"},"d":{"x_min":0,"x_max":660,"ha":660,"o":"m 441 246 q 441 304 410 337 q 380 370 327 370 q 274 370 244 337 q 214 304 214 246 q 214 188 244 155 q 274 122 327 122 q 380 122 410 155 q 441 188 441 246 z m 595 757 l 595 0 l 435 0 l 435 80 q 402 30 360 6 q 319 -19 268 -19 q 164 -19 103 53 q 41 125 41 246 q 41 364 102 436 q 164 509 262 509 q 325 509 364 486 q 403 464 434 411 q 431 429 430 451 q 428 473 428 499 l 428 757 z"},"1":{"x_min":0,"x_max":625,"ha":625,"o":"m 240 0 l 240 546 l 87 546 l 171 708 l 418 708 l 418 0 z"},"5":{"x_min":0,"x_max":625,"ha":625,"o":"m 534 708 l 534 562 l 263 562 l 249 470 q 271 475 293 478 q 315 480 337 480 q 446 480 509 415 q 572 350 572 238 q 572 119 493 50 q 415 -19 279 -19 q 214 -19 158 -4 q 102 10 59 38 l 72 211 l 87 208 q 113 168 157 146 q 201 123 252 123 q 320 123 357 156 q 394 188 394 247 q 394 304 354 340 q 314 376 250 376 q 207 376 172 362 q 138 347 110 318 l 86 332 l 145 708 z"}}}
